<svg width="18" height="18" viewBox="0 0 18 18" fill="none" xmlns="http://www.w3.org/2000/svg">
<path d="M12.825 5.575C12.6917 5.575 12.5667 5.554 12.45 5.512C12.3333 5.47067 12.225 5.4 12.125 5.3L10.7 3.875C10.5 3.675 10.4 3.43733 10.4 3.162C10.4 2.88733 10.5 2.65833 10.7 2.475C10.8833 2.275 11.1167 2.175 11.4 2.175C11.6833 2.175 11.9167 2.26667 12.1 2.45L12.825 3.175L15.65 0.325C15.85 0.125 16.0833 0.0250001 16.35 0.0250001C16.6167 0.0250001 16.8583 0.125 17.075 0.325C17.2583 0.525 17.35 0.766667 17.35 1.05C17.35 1.33333 17.2583 1.56667 17.075 1.75L13.525 5.3C13.425 5.4 13.3167 5.47067 13.2 5.512C13.0833 5.554 12.9583 5.575 12.825 5.575ZM1.4 17.4C1.06667 17.5333 0.75 17.504 0.45 17.312C0.15 17.1207 0 16.8417 0 16.475V2C0 1.45 0.196 0.979 0.588 0.587C0.979333 0.195667 1.45 0 2 0H8V2H2V14.95L7 12.8L12 14.95V8H14V16.475C14 16.8417 13.85 17.1207 13.55 17.312C13.25 17.504 12.9333 17.5333 12.6 17.4L7 15L1.4 17.4Z" fill="white"/>
</svg>
