<svg width="16" height="16" viewBox="0 0 16 16" fill="none" xmlns="http://www.w3.org/2000/svg">
<path d="M4.25 13C4.59722 13 4.89222 12.8783 5.135 12.635C5.37833 12.3922 5.5 12.0972 5.5 11.75C5.5 11.4028 5.37833 11.1078 5.135 10.865C4.89222 10.6217 4.59722 10.5 4.25 10.5C3.90278 10.5 3.60778 10.6217 3.365 10.865C3.12167 11.1078 3 11.4028 3 11.75C3 12.0972 3.12167 12.3922 3.365 12.635C3.60778 12.8783 3.90278 13 4.25 13ZM4.25 5.5C4.59722 5.5 4.89222 5.37833 5.135 5.135C5.37833 4.89222 5.5 4.59722 5.5 4.25C5.5 3.90278 5.37833 3.60778 5.135 3.365C4.89222 3.12167 4.59722 3 4.25 3C3.90278 3 3.60778 3.12167 3.365 3.365C3.12167 3.60778 3 3.90278 3 4.25C3 4.59722 3.12167 4.89222 3.365 5.135C3.60778 5.37833 3.90278 5.5 4.25 5.5ZM8 9.25C8.34722 9.25 8.64222 9.12833 8.885 8.885C9.12833 8.64222 9.25 8.34722 9.25 8C9.25 7.65278 9.12833 7.35778 8.885 7.115C8.64222 6.87167 8.34722 6.75 8 6.75C7.65278 6.75 7.35778 6.87167 7.115 7.115C6.87167 7.35778 6.75 7.65278 6.75 8C6.75 8.34722 6.87167 8.64222 7.115 8.885C7.35778 9.12833 7.65278 9.25 8 9.25ZM11.75 13C12.0972 13 12.3922 12.8783 12.635 12.635C12.8783 12.3922 13 12.0972 13 11.75C13 11.4028 12.8783 11.1078 12.635 10.865C12.3922 10.6217 12.0972 10.5 11.75 10.5C11.4028 10.5 11.1078 10.6217 10.865 10.865C10.6217 11.1078 10.5 11.4028 10.5 11.75C10.5 12.0972 10.6217 12.3922 10.865 12.635C11.1078 12.8783 11.4028 13 11.75 13ZM11.75 5.5C12.0972 5.5 12.3922 5.37833 12.635 5.135C12.8783 4.89222 13 4.59722 13 4.25C13 3.90278 12.8783 3.60778 12.635 3.365C12.3922 3.12167 12.0972 3 11.75 3C11.4028 3 11.1078 3.12167 10.865 3.365C10.6217 3.60778 10.5 3.90278 10.5 4.25C10.5 4.59722 10.6217 4.89222 10.865 5.135C11.1078 5.37833 11.4028 5.5 11.75 5.5ZM2.16667 15.5C1.70833 15.5 1.31583 15.3369 0.989167 15.0108C0.663055 14.6842 0.5 14.2917 0.5 13.8333V2.16667C0.5 1.70833 0.663055 1.31583 0.989167 0.989167C1.31583 0.663055 1.70833 0.5 2.16667 0.5H13.8333C14.2917 0.5 14.6842 0.663055 15.0108 0.989167C15.3369 1.31583 15.5 1.70833 15.5 2.16667V13.8333C15.5 14.2917 15.3369 14.6842 15.0108 15.0108C14.6842 15.3369 14.2917 15.5 13.8333 15.5H2.16667ZM2.16667 13.8333H13.8333V2.16667H2.16667V13.8333Z" fill="white"/>
</svg>
