<svg width="22" height="21" viewBox="0 0 22 21" fill="none" xmlns="http://www.w3.org/2000/svg">
<path d="M2.00005 20.3C1.60005 20.45 1.24605 20.3707 0.938048 20.062C0.629381 19.754 0.550048 19.4 0.700048 19L3.92505 9.97505C4.15838 9.27505 4.63338 8.84172 5.35005 8.67505C6.06671 8.50838 6.69171 8.69172 7.22505 9.22505L11.775 13.775C12.3084 14.3084 12.4917 14.9334 12.325 15.65C12.1584 16.3667 11.725 16.8417 11.025 17.0751L2.00005 20.3ZM3.30005 17.7001L10.35 15.2L5.80005 10.65L3.30005 17.7001ZM12.025 11.025C11.875 10.875 11.8 10.7 11.8 10.5C11.8 10.3 11.875 10.125 12.025 9.97505L17.1 4.90005C17.6334 4.36672 18.275 4.10005 19.025 4.10005C19.775 4.10005 20.4167 4.36672 20.95 4.90005L21.05 5.00005C21.1834 5.13338 21.25 5.30005 21.25 5.50005C21.25 5.70005 21.175 5.87505 21.025 6.02505C20.875 6.17505 20.7 6.25005 20.5 6.25005C20.3 6.25005 20.125 6.17505 19.975 6.02505L19.9 5.95005C19.6667 5.71672 19.375 5.60005 19.025 5.60005C18.675 5.60005 18.3834 5.71672 18.15 5.95005L13.05 11.05C12.9167 11.1834 12.75 11.25 12.55 11.25C12.35 11.25 12.175 11.175 12.025 11.025ZM8.02505 7.02505C7.87505 6.87505 7.80005 6.70005 7.80005 6.50005C7.80005 6.30005 7.87505 6.12505 8.02505 5.97505L8.10005 5.90005C8.33338 5.66672 8.45005 5.38338 8.45005 5.05005C8.45005 4.71672 8.33338 4.43338 8.10005 4.20005L7.95005 4.05005C7.81671 3.91672 7.75005 3.75005 7.75005 3.55005C7.75005 3.35005 7.82505 3.17505 7.97505 3.02505C8.12505 2.87505 8.30005 2.80005 8.50005 2.80005C8.70005 2.80005 8.87505 2.87505 9.02505 3.02505L9.15005 3.15005C9.68338 3.68338 9.95005 4.31672 9.95005 5.05005C9.95005 5.78338 9.68338 6.41672 9.15005 6.95005L9.05005 7.05005C8.91671 7.18338 8.75005 7.25005 8.55005 7.25005C8.35005 7.25005 8.17505 7.17505 8.02505 7.02505ZM10.025 9.02505C9.87505 8.87505 9.80005 8.70005 9.80005 8.50005C9.80005 8.30005 9.87505 8.12505 10.025 7.97505L13.1 4.90005C13.3334 4.66672 13.45 4.37505 13.45 4.02505C13.45 3.67505 13.3334 3.38338 13.1 3.15005L12 2.05005C11.8667 1.91672 11.8 1.75005 11.8 1.55005C11.8 1.35005 11.875 1.17505 12.025 1.02505C12.175 0.875049 12.35 0.800049 12.55 0.800049C12.75 0.800049 12.925 0.875049 13.075 1.02505L14.15 2.10005C14.6834 2.63338 14.95 3.27505 14.95 4.02505C14.95 4.77505 14.6834 5.41672 14.15 5.95005L11.05 9.05005C10.9167 9.18338 10.75 9.25005 10.55 9.25005C10.35 9.25005 10.175 9.17505 10.025 9.02505ZM14.025 13.025C13.875 12.875 13.8 12.7 13.8 12.5C13.8 12.3 13.875 12.125 14.025 11.975L15.1 10.9C15.6334 10.3667 16.275 10.1 17.025 10.1C17.775 10.1 18.4167 10.3667 18.95 10.9L20.05 12C20.1834 12.1334 20.25 12.3 20.25 12.5C20.25 12.7 20.175 12.875 20.025 13.025C19.875 13.175 19.7 13.25 19.5 13.25C19.3 13.25 19.125 13.175 18.975 13.025L17.9 11.95C17.6667 11.7167 17.375 11.6 17.025 11.6C16.675 11.6 16.3834 11.7167 16.15 11.95L15.05 13.05C14.9167 13.1834 14.75 13.25 14.55 13.25C14.35 13.25 14.175 13.175 14.025 13.025Z" fill="white"/>
</svg>
