<svg width="20" height="19" viewBox="0 0 20 19" fill="none" xmlns="http://www.w3.org/2000/svg">
<path d="M5 12H11.025C11.3083 12 11.5417 11.904 11.725 11.712C11.9083 11.5207 12 11.2833 12 11C12 10.7167 11.9043 10.479 11.713 10.287C11.521 10.0957 11.2833 10 11 10H4.975C4.69167 10 4.45833 10.0957 4.275 10.287C4.09167 10.479 4 10.7167 4 11C4 11.2833 4.09567 11.5207 4.287 11.712C4.479 11.904 4.71667 12 5 12ZM5 9H15.025C15.3083 9 15.5417 8.904 15.725 8.712C15.9083 8.52067 16 8.28333 16 8C16 7.71667 15.904 7.479 15.712 7.287C15.5207 7.09567 15.2833 7 15 7H4.975C4.69167 7 4.45833 7.09567 4.275 7.287C4.09167 7.479 4 7.71667 4 8C4 8.28333 4.09567 8.52067 4.287 8.712C4.479 8.904 4.71667 9 5 9ZM5 6H15.025C15.3083 6 15.5417 5.90433 15.725 5.713C15.9083 5.521 16 5.28333 16 5C16 4.71667 15.904 4.479 15.712 4.287C15.5207 4.09567 15.2833 4 15 4H4.975C4.69167 4 4.45833 4.09567 4.275 4.287C4.09167 4.479 4 4.71667 4 5C4 5.28333 4.09567 5.521 4.287 5.713C4.479 5.90433 4.71667 6 5 6ZM0 17.575V2C0 1.45 0.196 0.979 0.588 0.587C0.979333 0.195667 1.45 0 2 0H18C18.55 0 19.021 0.195667 19.413 0.587C19.8043 0.979 20 1.45 20 2V14C20 14.55 19.8043 15.021 19.413 15.413C19.021 15.8043 18.55 16 18 16H4L1.7 18.3C1.38333 18.6167 1.02067 18.6873 0.612 18.512C0.204 18.3373 0 18.025 0 17.575ZM2 15.175L3.175 14H18V2H2V15.175Z" fill="white"/>
</svg>
