<svg width="20" height="20" viewBox="0 0 20 20" fill="none" xmlns="http://www.w3.org/2000/svg">
<path d="M8.6 11.8002L6.425 9.62524C6.24167 9.44191 6.01267 9.35458 5.738 9.36324C5.46267 9.37124 5.23333 9.46691 5.05 9.65024C4.86667 9.83358 4.775 10.0669 4.775 10.3502C4.775 10.6336 4.86667 10.8669 5.05 11.0502L7.9 13.9002C8.08333 14.0836 8.31667 14.1752 8.6 14.1752C8.88333 14.1752 9.11667 14.0836 9.3 13.9002L14.975 8.22524C15.1583 8.04191 15.246 7.81258 15.238 7.53724C15.2293 7.26258 15.1333 7.03358 14.95 6.85024C14.7667 6.66691 14.5333 6.57524 14.25 6.57524C13.9667 6.57524 13.7333 6.66691 13.55 6.85024L8.6 11.8002ZM10 20.0002C8.61667 20.0002 7.31667 19.7376 6.1 19.2122C4.88333 18.6876 3.825 17.9752 2.925 17.0752C2.025 16.1752 1.31267 15.1169 0.788 13.9002C0.262667 12.6836 0 11.3836 0 10.0002C0 8.61691 0.262667 7.31691 0.788 6.10024C1.31267 4.88358 2.025 3.82524 2.925 2.92524C3.825 2.02524 4.88333 1.31258 6.1 0.787244C7.31667 0.262577 8.61667 0.000244141 10 0.000244141C11.3833 0.000244141 12.6833 0.262577 13.9 0.787244C15.1167 1.31258 16.175 2.02524 17.075 2.92524C17.975 3.82524 18.6873 4.88358 19.212 6.10024C19.7373 7.31691 20 8.61691 20 10.0002C20 11.3836 19.7373 12.6836 19.212 13.9002C18.6873 15.1169 17.975 16.1752 17.075 17.0752C16.175 17.9752 15.1167 18.6876 13.9 19.2122C12.6833 19.7376 11.3833 20.0002 10 20.0002ZM10 18.0002C12.2167 18.0002 14.1043 17.2212 15.663 15.6632C17.221 14.1046 18 12.2169 18 10.0002C18 7.78358 17.221 5.89591 15.663 4.33724C14.1043 2.77924 12.2167 2.00024 10 2.00024C7.78333 2.00024 5.896 2.77924 4.338 4.33724C2.77933 5.89591 2 7.78358 2 10.0002C2 12.2169 2.77933 14.1046 4.338 15.6632C5.896 17.2212 7.78333 18.0002 10 18.0002Z" fill="#27AE60"/>
</svg>
