<svg width="14" height="15" viewBox="0 0 14 15" fill="none" xmlns="http://www.w3.org/2000/svg">
<path d="M2.83325 15C2.37492 15 1.9827 14.8369 1.65659 14.5108C1.32992 14.1842 1.16659 13.7917 1.16659 13.3333V2.5C0.930474 2.5 0.732419 2.42028 0.572419 2.26083C0.412974 2.10083 0.333252 1.90278 0.333252 1.66667C0.333252 1.43056 0.412974 1.2325 0.572419 1.0725C0.732419 0.913056 0.930474 0.833333 1.16659 0.833333H4.49992C4.49992 0.597222 4.57992 0.399167 4.73992 0.239167C4.89936 0.0797222 5.09714 0 5.33325 0H8.66658C8.9027 0 9.10075 0.0797222 9.26075 0.239167C9.4202 0.399167 9.49992 0.597222 9.49992 0.833333H12.8333C13.0694 0.833333 13.2671 0.913056 13.4266 1.0725C13.5866 1.2325 13.6666 1.43056 13.6666 1.66667C13.6666 1.90278 13.5866 2.10083 13.4266 2.26083C13.2671 2.42028 13.0694 2.5 12.8333 2.5V13.3333C12.8333 13.7917 12.6702 14.1842 12.3441 14.5108C12.0174 14.8369 11.6249 15 11.1666 15H2.83325ZM2.83325 2.5V13.3333H11.1666V2.5H2.83325ZM4.49992 10.8333C4.49992 11.0694 4.57992 11.2672 4.73992 11.4267C4.89936 11.5867 5.09714 11.6667 5.33325 11.6667C5.56936 11.6667 5.76742 11.5867 5.92742 11.4267C6.08686 11.2672 6.16658 11.0694 6.16658 10.8333V5C6.16658 4.76389 6.08686 4.56583 5.92742 4.40583C5.76742 4.24639 5.56936 4.16667 5.33325 4.16667C5.09714 4.16667 4.89936 4.24639 4.73992 4.40583C4.57992 4.56583 4.49992 4.76389 4.49992 5V10.8333ZM7.83325 10.8333C7.83325 11.0694 7.91325 11.2672 8.07325 11.4267C8.2327 11.5867 8.43047 11.6667 8.66658 11.6667C8.9027 11.6667 9.10075 11.5867 9.26075 11.4267C9.4202 11.2672 9.49992 11.0694 9.49992 10.8333V5C9.49992 4.76389 9.4202 4.56583 9.26075 4.40583C9.10075 4.24639 8.9027 4.16667 8.66658 4.16667C8.43047 4.16667 8.2327 4.24639 8.07325 4.40583C7.91325 4.56583 7.83325 4.76389 7.83325 5V10.8333Z" fill="#EB5757"/>
</svg>
