<svg width="20" height="23" viewBox="0 0 20 23" fill="none" xmlns="http://www.w3.org/2000/svg">
<path d="M10.8604 10.2957H12.8604V8.29565H14.8604V6.29565H12.8604V4.29565H10.8604V6.29565H8.86035V8.29565H10.8604V10.2957ZM8.86035 14.2957H14.8604V12.2957H8.86035V14.2957ZM6.36035 18.2957C5.81035 18.2957 5.33968 18.1 4.94835 17.7087C4.55635 17.3167 4.36035 16.8457 4.36035 16.2957V2.29565C4.36035 1.74565 4.55635 1.27465 4.94835 0.882654C5.33968 0.491321 5.81035 0.295654 6.36035 0.295654H13.3604L19.3604 6.29565V16.2957C19.3604 16.8457 19.1647 17.3167 18.7734 17.7087C18.3814 18.1 17.9104 18.2957 17.3604 18.2957H6.36035ZM6.36035 16.2957H17.3604V7.29565L12.3604 2.29565H6.36035V16.2957ZM2.36035 22.2957C1.81035 22.2957 1.33968 22.1 0.948352 21.7087C0.556352 21.3167 0.360352 20.8457 0.360352 20.2957V6.29565H2.36035V20.2957H13.3604V22.2957H2.36035Z" fill="white"/>
</svg>
