<svg width="20" height="20" viewBox="0 0 20 20" fill="none" xmlns="http://www.w3.org/2000/svg">
<path d="M8 10.0001H11.5V11.3001C11.5 11.5335 11.6 11.6918 11.8 11.7751C12 11.8585 12.1833 11.8168 12.35 11.6501L14.3 9.70012C14.5 9.50012 14.6 9.26679 14.6 9.00012C14.6 8.73346 14.5 8.50012 14.3 8.30012L12.35 6.35012C12.1833 6.18346 12 6.14179 11.8 6.22512C11.6 6.30846 11.5 6.46679 11.5 6.70012V8.00012H7C6.71667 8.00012 6.47933 8.09579 6.288 8.28712C6.096 8.47912 6 8.71679 6 9.00012V12.0001C6 12.2835 6.096 12.5208 6.288 12.7121C6.47933 12.9041 6.71667 13.0001 7 13.0001C7.28333 13.0001 7.521 12.9041 7.713 12.7121C7.90433 12.5208 8 12.2835 8 12.0001V10.0001ZM10 20.0001C9.75 20.0001 9.504 19.9501 9.262 19.8501C9.02067 19.7501 8.8 19.6001 8.6 19.4001L0.6 11.4001C0.4 11.2001 0.25 10.9795 0.15 10.7381C0.0500001 10.4961 0 10.2501 0 10.0001C0 9.75012 0.0500001 9.50412 0.15 9.26212C0.25 9.02079 0.4 8.80012 0.6 8.60012L8.6 0.600122C8.8 0.400122 9.02067 0.250122 9.262 0.150122C9.504 0.0501222 9.75 0.00012207 10 0.00012207C10.25 0.00012207 10.496 0.0501222 10.738 0.150122C10.9793 0.250122 11.2 0.400122 11.4 0.600122L19.4 8.60012C19.6 8.80012 19.75 9.02079 19.85 9.26212C19.95 9.50412 20 9.75012 20 10.0001C20 10.2501 19.95 10.4961 19.85 10.7381C19.75 10.9795 19.6 11.2001 19.4 11.4001L11.4 19.4001C11.2 19.6001 10.9793 19.7501 10.738 19.8501C10.496 19.9501 10.25 20.0001 10 20.0001ZM10 18.0001L18 10.0001L10 2.00012L2 10.0001L10 18.0001Z" fill="white"/>
</svg>
