<svg width="18" height="16" viewBox="0 0 18 16" fill="none" xmlns="http://www.w3.org/2000/svg">
<path d="M7.33341 16L10.6667 12.6666H15.6667C16.1251 12.6666 16.5176 12.8297 16.8442 13.1558C17.1704 13.4825 17.3334 13.875 17.3334 14.3333C17.3334 14.7916 17.1704 15.1841 16.8442 15.5108C16.5176 15.8369 16.1251 16 15.6667 16H7.33341ZM2.33341 14.3333H3.50008L10.6876 7.14579L9.52091 5.97913L2.33341 13.1666V14.3333ZM14.2501 5.93746L10.7084 2.43746L11.8751 1.27079C12.1945 0.951348 12.587 0.791626 13.0526 0.791626C13.5176 0.791626 13.9098 0.951348 14.2292 1.27079L15.3959 2.43746C15.7154 2.7569 15.882 3.14246 15.8959 3.59413C15.9098 4.04524 15.757 4.43051 15.4376 4.74996L14.2501 5.93746ZM1.50008 16C1.26397 16 1.06619 15.92 0.906748 15.76C0.746748 15.6005 0.666748 15.4027 0.666748 15.1666V12.8125C0.666748 12.7013 0.687581 12.5938 0.729248 12.49C0.770915 12.3855 0.833415 12.2916 0.916748 12.2083L9.50008 3.62496L13.0417 7.16663L4.45841 15.75C4.37508 15.8333 4.28147 15.8958 4.17758 15.9375C4.07314 15.9791 3.96536 16 3.85425 16H1.50008Z" fill="#9082FF"/>
</svg>
