<svg width="20" height="16" viewBox="0 0 20 16" fill="none" xmlns="http://www.w3.org/2000/svg">
<path d="M14.1666 5.5H15.8333V3.83333H14.1666V5.5ZM14.1666 8.83333H15.8333V7.16667H14.1666V8.83333ZM14.1666 12.1667H15.8333V10.5H14.1666V12.1667ZM14.1666 15.5V13.8333H17.4999V2.16667H9.99992V3.33333L8.33325 2.125C8.33325 1.68056 8.49659 1.29861 8.82325 0.979167C9.14936 0.659722 9.54159 0.5 9.99992 0.5H17.4999C17.9583 0.5 18.3508 0.663055 18.6774 0.989167C19.0035 1.31583 19.1666 1.70833 19.1666 2.16667V13.8333C19.1666 14.2917 19.0035 14.6842 18.6774 15.0108C18.3508 15.3369 17.9583 15.5 17.4999 15.5H14.1666ZM0.833252 14.6667V8.02083C0.833252 7.74305 0.895752 7.48611 1.02075 7.25C1.14575 7.01389 1.31936 6.81944 1.54159 6.66667L5.70825 3.6875C5.99992 3.47917 6.31936 3.375 6.66659 3.375C7.01381 3.375 7.33325 3.47917 7.62492 3.6875L11.7916 6.66667C12.0138 6.81944 12.1874 7.01389 12.3124 7.25C12.4374 7.48611 12.4999 7.74305 12.4999 8.02083V14.6667C12.4999 14.9028 12.4202 15.1006 12.2608 15.26C12.1008 15.42 11.9027 15.5 11.6666 15.5H7.49992V11.3333H5.83325V15.5H1.66659C1.43047 15.5 1.2327 15.42 1.07325 15.26C0.913252 15.1006 0.833252 14.9028 0.833252 14.6667ZM2.49992 13.8333H4.16659V9.66667H9.16659V13.8333H10.8333V8L6.66659 5.04167L2.49992 8V13.8333Z" fill="white"/>
</svg>
