<svg width="16" height="18" viewBox="0 0 16 18" fill="none" xmlns="http://www.w3.org/2000/svg">
<path d="M2.16667 17.5C1.70833 17.5 1.31583 17.3369 0.989167 17.0108C0.663055 16.6842 0.5 16.2917 0.5 15.8333V4.16667C0.5 3.70834 0.663055 3.31584 0.989167 2.98917C1.31583 2.66306 1.70833 2.5 2.16667 2.5H5.66667C5.86111 2 6.16667 1.59722 6.58333 1.29167C7 0.986114 7.47222 0.833336 8 0.833336C8.52778 0.833336 9 0.986114 9.41667 1.29167C9.83333 1.59722 10.1389 2 10.3333 2.5H13.8333C14.2917 2.5 14.6842 2.66306 15.0108 2.98917C15.3369 3.31584 15.5 3.70834 15.5 4.16667V15.8333C15.5 16.2917 15.3369 16.6842 15.0108 17.0108C14.6842 17.3369 14.2917 17.5 13.8333 17.5H2.16667ZM8 3.54167C8.18056 3.54167 8.33 3.4825 8.44833 3.36417C8.56611 3.24639 8.625 3.09722 8.625 2.91667C8.625 2.73611 8.56611 2.58667 8.44833 2.46834C8.33 2.35056 8.18056 2.29167 8 2.29167C7.81944 2.29167 7.67028 2.35056 7.5525 2.46834C7.43417 2.58667 7.375 2.73611 7.375 2.91667C7.375 3.09722 7.43417 3.24639 7.5525 3.36417C7.67028 3.4825 7.81944 3.54167 8 3.54167ZM2.16667 14.875C2.91667 14.1389 3.78833 13.5589 4.78167 13.135C5.77444 12.7117 6.84722 12.5 8 12.5C9.15278 12.5 10.2258 12.7117 11.2192 13.135C12.2119 13.5589 13.0833 14.1389 13.8333 14.875V4.16667H2.16667V14.875ZM8 10.8333C8.80556 10.8333 9.49306 10.5486 10.0625 9.97917C10.6319 9.40973 10.9167 8.72222 10.9167 7.91667C10.9167 7.11111 10.6319 6.42361 10.0625 5.85417C9.49306 5.28472 8.80556 5 8 5C7.19444 5 6.50694 5.28472 5.9375 5.85417C5.36806 6.42361 5.08333 7.11111 5.08333 7.91667C5.08333 8.72222 5.36806 9.40973 5.9375 9.97917C6.50694 10.5486 7.19444 10.8333 8 10.8333ZM3.83333 15.8333H12.1667V15.625C11.5833 15.1389 10.9375 14.7744 10.2292 14.5317C9.52083 14.2883 8.77778 14.1667 8 14.1667C7.22222 14.1667 6.47917 14.2883 5.77083 14.5317C5.0625 14.7744 4.41667 15.1389 3.83333 15.625V15.8333ZM8 9.16667C7.65278 9.16667 7.35778 9.045 7.115 8.80167C6.87167 8.55889 6.75 8.26389 6.75 7.91667C6.75 7.56945 6.87167 7.27445 7.115 7.03167C7.35778 6.78834 7.65278 6.66667 8 6.66667C8.34722 6.66667 8.64222 6.78834 8.885 7.03167C9.12833 7.27445 9.25 7.56945 9.25 7.91667C9.25 8.26389 9.12833 8.55889 8.885 8.80167C8.64222 9.045 8.34722 9.16667 8 9.16667Z" fill="white"/>
</svg>
