<svg width="30" height="30" viewBox="0 0 30 30" fill="none" xmlns="http://www.w3.org/2000/svg">
<g clip-path="url(#clip0_616_7830)">
<path d="M30 15C30 6.71573 23.2843 0 15 0C6.71573 0 0 6.71573 0 15C0 23.2843 6.71573 30 15 30C23.2843 30 30 23.2843 30 15Z" fill="url(#paint0_linear_616_7830)"/>
<path opacity="0.1" d="M26.2895 5.13164C24.1026 9.14611 21.0099 13.2869 17.1454 17.1514C13.2809 21.0158 9.14015 24.1027 5.13159 26.2895C4.88028 26.0711 4.6362 25.8435 4.39936 25.6066C2.96776 24.2228 1.82599 22.5679 1.04061 20.7382C0.255241 18.9086 -0.158012 16.9409 -0.175049 14.9499C-0.192086 12.9589 0.187434 10.9844 0.94138 9.14159C1.69533 7.29878 2.80861 5.62451 4.21632 4.21641C5.62403 2.80831 7.29799 1.69456 9.14059 0.940098C10.9832 0.185637 12.9576 -0.194434 14.9486 -0.177953C16.9396 -0.161472 18.9074 0.251232 20.7372 1.03609C22.5671 1.82095 24.2224 2.96227 25.6066 4.39348C25.8434 4.63032 26.0711 4.87637 26.2895 5.13164V5.13164Z" fill="white"/>
<path d="M18.5527 7.10535H11.4474C10.2958 7.10535 9.19136 7.56282 8.37706 8.37712C7.56276 9.19142 7.10529 10.2959 7.10529 11.4475V18.5527C7.10529 19.7043 7.56276 20.8087 8.37706 21.623C9.19136 22.4374 10.2958 22.8948 11.4474 22.8948H18.5527C19.7043 22.8948 20.8087 22.4374 21.623 21.623C22.4373 20.8087 22.8948 19.7043 22.8948 18.5527V11.4475C22.8948 10.2959 22.4373 9.19142 21.623 8.37712C20.8087 7.56282 19.7043 7.10535 18.5527 7.10535ZM21.5132 17.929C21.5132 18.8796 21.1356 19.7913 20.4634 20.4635C19.7912 21.1356 18.8796 21.5132 17.929 21.5132H12.0711C11.1205 21.5132 10.2088 21.1356 9.53666 20.4635C8.86449 19.7913 8.48686 18.8796 8.48686 17.929V12.0711C8.48686 11.1205 8.86449 10.2089 9.53666 9.53672C10.2088 8.86455 11.1205 8.48693 12.0711 8.48693H17.929C18.8796 8.48693 19.7912 8.86455 20.4634 9.53672C21.1356 10.2089 21.5132 11.1205 21.5132 12.0711V17.929Z" fill="white"/>
<path d="M17.8796 12.1501L17.8421 12.1126L17.8105 12.0811C17.0643 11.3374 16.0536 10.92 15 10.9205C14.468 10.9241 13.9419 11.0326 13.4518 11.2396C12.9617 11.4466 12.5171 11.7481 12.1436 12.127C11.7701 12.5058 11.4748 12.9546 11.2748 13.4475C11.0747 13.9405 10.9737 14.4681 10.9776 15.0001C10.9768 16.0798 11.4024 17.1162 12.1619 17.8837C12.5338 18.2602 12.9771 18.5588 13.4657 18.7621C13.9544 18.9655 14.4786 19.0694 15.0079 19.0679C15.8018 19.0513 16.5737 18.8039 17.2294 18.3561C17.8852 17.9083 18.3965 17.2794 18.7009 16.546C19.0054 15.8126 19.0898 15.0065 18.944 14.2259C18.7981 13.4454 18.4283 12.7241 17.8796 12.1501V12.1501ZM15 17.6765C14.4692 17.6839 13.9481 17.5333 13.5031 17.2438C13.058 16.9542 12.7092 16.5389 12.5008 16.0506C12.2925 15.5622 12.2341 15.023 12.3331 14.5014C12.4321 13.9798 12.684 13.4994 13.0568 13.1214C13.4295 12.7433 13.9063 12.4847 14.4264 12.3783C14.9466 12.272 15.4866 12.3227 15.9778 12.5242C16.4691 12.7256 16.8893 13.0685 17.1851 13.5094C17.4808 13.9503 17.6388 14.4692 17.6388 15.0001C17.6414 15.3492 17.5752 15.6953 17.444 16.0187C17.3128 16.3422 17.1191 16.6366 16.874 16.8851C16.629 17.1337 16.3373 17.3315 16.0158 17.4673C15.6942 17.603 15.3491 17.6741 15 17.6765V17.6765Z" fill="white"/>
<path d="M20.2165 10.733C20.2175 10.8596 20.1935 10.9852 20.146 11.1026C20.0984 11.22 20.0282 11.3268 19.9393 11.417C19.8503 11.5072 19.7445 11.579 19.6278 11.6283C19.5111 11.6775 19.3859 11.7033 19.2592 11.704C19.1336 11.704 19.0093 11.679 18.8934 11.6305C18.7776 11.5821 18.6725 11.5111 18.5842 11.4218C18.4505 11.2861 18.3596 11.1142 18.3226 10.9273C18.2857 10.7405 18.3045 10.5469 18.3766 10.3706C18.4486 10.1942 18.5709 10.043 18.7281 9.93547C18.8854 9.82798 19.0707 9.76901 19.2612 9.76587C19.4841 9.76583 19.7 9.84406 19.8711 9.98692L19.8908 10.0067C19.9226 10.0326 19.9517 10.0617 19.9776 10.0935L19.9994 10.1172C20.1406 10.2912 20.2173 10.5088 20.2165 10.733V10.733Z" fill="white"/>
</g>
<defs>
<linearGradient id="paint0_linear_616_7830" x1="4.39342" y1="4.39342" x2="25.6066" y2="25.6066" gradientUnits="userSpaceOnUse">
<stop stop-color="#FAE100"/>
<stop offset="0.15" stop-color="#FCB720"/>
<stop offset="0.3" stop-color="#FF7950"/>
<stop offset="0.5" stop-color="#FF1C74"/>
<stop offset="1" stop-color="#6C1CD1"/>
</linearGradient>
<clipPath id="clip0_616_7830">
<rect width="30" height="30" fill="white"/>
</clipPath>
</defs>
</svg>
