<svg width="16" height="17" viewBox="0 0 16 17" fill="none" xmlns="http://www.w3.org/2000/svg">
<g clip-path="url(#clip0_365_2225)">
<path d="M12.6667 7.83337H3.33333C2.59695 7.83337 2 8.43033 2 9.16671V13.8334C2 14.5698 2.59695 15.1667 3.33333 15.1667H12.6667C13.403 15.1667 14 14.5698 14 13.8334V9.16671C14 8.43033 13.403 7.83337 12.6667 7.83337Z" stroke="white" stroke-width="2" stroke-linecap="round" stroke-linejoin="round"/>
<path d="M4.66669 7.83337V5.16671C4.66669 4.28265 5.01788 3.43481 5.643 2.80968C6.26812 2.18456 7.11597 1.83337 8.00002 1.83337C8.88408 1.83337 9.73192 2.18456 10.357 2.80968C10.9822 3.43481 11.3334 4.28265 11.3334 5.16671V7.83337" stroke="white" stroke-width="2" stroke-linecap="round" stroke-linejoin="round"/>
</g>
<defs>
<clipPath id="clip0_365_2225">
<rect width="16" height="16" fill="white" transform="translate(0 0.5)"/>
</clipPath>
</defs>
</svg>
