<svg width="22" height="18" viewBox="0 0 22 18" fill="none" xmlns="http://www.w3.org/2000/svg">
<path d="M2 18C1.45 18 0.979333 17.8043 0.588 17.413C0.196 17.021 0 16.55 0 16V7C0 6.71667 0.096 6.479 0.288 6.287C0.479333 6.09567 0.716667 6 1 6C1.28333 6 1.521 6.09567 1.713 6.287C1.90433 6.479 2 6.71667 2 7V8H4V1C4 0.716667 4.09567 0.479 4.287 0.287C4.479 0.0956666 4.71667 0 5 0C5.28333 0 5.521 0.0956666 5.713 0.287C5.90433 0.479 6 0.716667 6 1V2H8V1C8 0.716667 8.096 0.479 8.288 0.287C8.47933 0.0956666 8.71667 0 9 0C9.28333 0 9.521 0.0956666 9.713 0.287C9.90433 0.479 10 0.716667 10 1V2H12V1C12 0.716667 12.096 0.479 12.288 0.287C12.4793 0.0956666 12.7167 0 13 0C13.2833 0 13.521 0.0956666 13.713 0.287C13.9043 0.479 14 0.716667 14 1V2H16V1C16 0.716667 16.096 0.479 16.288 0.287C16.4793 0.0956666 16.7167 0 17 0C17.2833 0 17.5207 0.0956666 17.712 0.287C17.904 0.479 18 0.716667 18 1V8H20V7C20 6.71667 20.096 6.479 20.288 6.287C20.4793 6.09567 20.7167 6 21 6C21.2833 6 21.5207 6.09567 21.712 6.287C21.904 6.479 22 6.71667 22 7V16C22 16.55 21.8043 17.021 21.413 17.413C21.021 17.8043 20.55 18 20 18H13V15C13 14.45 12.8043 13.979 12.413 13.587C12.021 13.1957 11.55 13 11 13C10.45 13 9.97933 13.1957 9.588 13.587C9.196 13.979 9 14.45 9 15V18H2ZM2 16H7V15C7 13.9 7.39167 12.9583 8.175 12.175C8.95833 11.3917 9.9 11 11 11C12.1 11 13.0417 11.3917 13.825 12.175C14.6083 12.9583 15 13.9 15 15V16H20V10H16V4H6V10H2V16ZM8 9H10V6H8V9ZM12 9H14V6H12V9Z" fill="white"/>
</svg>
