<svg width="20" height="16" viewBox="0 0 20 16" fill="none" xmlns="http://www.w3.org/2000/svg">
<path d="M2 16C1.45 16 0.979333 15.8043 0.588 15.413C0.196 15.021 0 14.55 0 14V2C0 1.45 0.196 0.979333 0.588 0.588C0.979333 0.196 1.45 0 2 0H14C14.55 0 15.021 0.196 15.413 0.588C15.8043 0.979333 16 1.45 16 2V6.5L19.15 3.35C19.3167 3.18333 19.5 3.14167 19.7 3.225C19.9 3.30833 20 3.46667 20 3.7V12.3C20 12.5333 19.9 12.6917 19.7 12.775C19.5 12.8583 19.3167 12.8167 19.15 12.65L16 9.5V14C16 14.55 15.8043 15.021 15.413 15.413C15.021 15.8043 14.55 16 14 16H2ZM2 14H14V2H2V14ZM4.025 12H11.975C12.1917 12 12.346 11.9083 12.438 11.725C12.5293 11.5417 12.5083 11.3667 12.375 11.2L9.95 8.025C9.85 7.89167 9.71667 7.825 9.55 7.825C9.38333 7.825 9.25 7.89167 9.15 8.025L7.25 10.5L6.1 9C6 8.86667 5.86667 8.8 5.7 8.8C5.53333 8.8 5.4 8.86667 5.3 9L3.625 11.2C3.49167 11.3667 3.47067 11.5417 3.562 11.725C3.654 11.9083 3.80833 12 4.025 12Z" fill="white"/>
</svg>
